<svg width="20" height="13" viewBox="0 0 20 13" fill="none" xmlns="http://www.w3.org/2000/svg">
<path d="M13.0582 0.830763H18.0488V2.04152H13.0582V0.830763ZM8.05754 5.62126C9.16073 5.09343 9.73859 4.29043 9.73859 3.04965C9.73859 0.595616 7.91245 0.000244141 5.80363 0.000244141H0V12.3179H5.96623C8.20263 12.3179 10.3014 11.2423 10.3014 8.74071C10.3014 7.19474 9.57098 6.05153 8.05754 5.62126ZM2.70669 2.10156H5.24578C6.22389 2.10156 7.10194 2.37423 7.10194 3.50994C7.10194 4.55559 6.41901 4.97585 5.45091 4.97585H2.70669V2.10156ZM5.596 10.2266H2.70419V6.83452H5.65353C6.84428 6.83452 7.59725 7.33233 7.59725 8.59311C7.59725 9.83389 6.69919 10.2266 5.596 10.2266ZM20 7.98774C20 5.34859 18.4565 3.14971 15.6648 3.14971C12.9506 3.14971 11.1044 5.19349 11.1044 7.87266C11.1044 10.6494 12.853 12.5556 15.6648 12.5556C17.7936 12.5556 19.172 11.5975 19.8349 9.55371H17.676C17.4409 10.3167 16.4853 10.7169 15.7423 10.7169C14.3064 10.7169 13.556 9.87642 13.556 8.44802H19.9825C19.99 8.30043 20 8.14534 20 7.98774ZM13.556 6.90206C13.6335 5.72882 14.4165 4.99587 15.5872 4.99587C16.818 4.99587 17.4334 5.71882 17.541 6.90206H13.556Z" fill="white"/>
</svg>
