<svg width="21" height="21" viewBox="0 0 21 21" fill="none" xmlns="http://www.w3.org/2000/svg">
<path d="M9.99432 4.85596C8.6323 4.85596 7.32607 5.39702 6.36298 6.36011C5.39989 7.3232 4.85883 8.62944 4.85883 9.99145C4.85883 11.3535 5.39989 12.6597 6.36298 13.6228C7.32607 14.5859 8.6323 15.1269 9.99432 15.1269C11.3563 15.1269 12.6626 14.5859 13.6257 13.6228C14.5888 12.6597 15.1298 11.3535 15.1298 9.99145C15.1298 8.62944 14.5888 7.3232 13.6257 6.36011C12.6626 5.39702 11.3563 4.85596 9.99432 4.85596ZM9.99432 13.3266C9.10948 13.3266 8.26088 12.9751 7.6352 12.3495C7.00953 11.7238 6.65803 10.8752 6.65803 9.99034C6.65803 9.1055 7.00953 8.2569 7.6352 7.63123C8.26088 7.00555 9.10948 6.65405 9.99432 6.65405C10.8792 6.65405 11.7278 7.00555 12.3534 7.63123C12.9791 8.2569 13.3306 9.1055 13.3306 9.99034C13.3306 10.8752 12.9791 11.7238 12.3534 12.3495C11.7278 12.9751 10.8792 13.3266 9.99432 13.3266Z" fill="white"/>
<path d="M15.333 5.86458C15.9942 5.86458 16.5302 5.32856 16.5302 4.66734C16.5302 4.00612 15.9942 3.47009 15.333 3.47009C14.6718 3.47009 14.1357 4.00612 14.1357 4.66734C14.1357 5.32856 14.6718 5.86458 15.333 5.86458Z" fill="white"/>
<path d="M19.4722 3.44982C19.2151 2.78587 18.8222 2.18292 18.3186 1.67956C17.8151 1.1762 17.212 0.783531 16.5479 0.526677C15.7709 0.234981 14.95 0.0772556 14.1201 0.0602174C13.0506 0.0135714 12.7119 0.000244141 9.99973 0.000244141C7.2876 0.000244141 6.93998 0.000244029 5.87934 0.0602174C5.05014 0.0763845 4.2298 0.234142 3.45375 0.526677C2.78953 0.783231 2.18628 1.1758 1.68269 1.6792C1.1791 2.18259 0.786303 2.7857 0.529496 3.44982C0.237742 4.22682 0.0803788 5.04782 0.0641477 5.87763C0.0163911 6.94605 0.00195312 7.28478 0.00195312 9.99802C0.00195312 12.7102 0.00195312 13.0556 0.0641477 14.1184C0.080807 14.9492 0.237404 15.7688 0.529496 16.5473C0.787024 17.2112 1.1802 17.8141 1.68391 18.3174C2.18762 18.8207 2.79078 19.2135 3.45486 19.4705C4.22944 19.7739 5.05012 19.9429 5.88156 19.9703C6.95109 20.0169 7.28982 20.0313 10.002 20.0313C12.7141 20.0313 13.0617 20.0313 14.1223 19.9703C14.9521 19.9534 15.773 19.796 16.5502 19.5049C17.214 19.2475 17.8169 18.8544 18.3204 18.3509C18.8239 17.8475 19.217 17.2445 19.4744 16.5807C19.7665 15.8032 19.9231 14.9836 19.9398 14.1528C19.9875 13.0844 20.002 12.7457 20.002 10.0325C20.002 7.31921 20.002 6.97492 19.9398 5.91206C19.9268 5.07052 19.7687 4.23753 19.4722 3.44982ZM18.1195 14.0362C18.1123 14.6763 17.9955 15.3104 17.7741 15.911C17.6073 16.3428 17.3519 16.735 17.0245 17.0623C16.697 17.3896 16.3047 17.6447 15.8727 17.8112C15.2787 18.0316 14.6514 18.1484 14.0179 18.1566C12.9629 18.2055 12.6652 18.2177 9.95975 18.2177C7.25207 18.2177 6.97552 18.2177 5.90044 18.1566C5.26731 18.1489 4.64025 18.032 4.04682 17.8112C3.61333 17.6457 3.21941 17.3911 2.89055 17.0637C2.56168 16.7364 2.30519 16.3437 2.13767 15.911C1.91937 15.3168 1.80261 14.6902 1.79227 14.0573C1.74451 13.0022 1.73341 12.7046 1.73341 9.99914C1.73341 7.29256 1.73341 7.01602 1.79227 5.93983C1.79945 5.30014 1.91627 4.66641 2.13767 4.06622C2.47641 3.18994 3.17054 2.50024 4.04682 2.16484C4.64055 1.94509 5.26742 1.82828 5.90044 1.81944C6.95664 1.77168 7.25318 1.75835 9.95975 1.75835C12.6663 1.75835 12.944 1.75835 14.0179 1.81944C14.6515 1.82706 15.2789 1.9439 15.8727 2.16484C16.3046 2.33173 16.6969 2.5871 17.0244 2.91454C17.3518 3.24198 17.6072 3.63426 17.7741 4.06622C17.9923 4.66034 18.1091 5.28696 18.1195 5.91984C18.1672 6.97603 18.1794 7.27257 18.1794 9.97914C18.1794 12.6846 18.1794 12.9756 18.1317 14.0373H18.1195V14.0362Z" fill="white"/>
</svg>
