<svg width="21" height="20" viewBox="0 0 21 20" fill="none" xmlns="http://www.w3.org/2000/svg">
<path d="M3.19879 4.80773C4.52634 4.80773 5.60253 3.73154 5.60253 2.40399C5.60253 1.07644 4.52634 0.000244141 3.19879 0.000244141C1.87124 0.000244141 0.795044 1.07644 0.795044 2.40399C0.795044 3.73154 1.87124 4.80773 3.19879 4.80773Z" fill="white"/>
<path d="M7.87217 6.62938V19.9653H12.0128V13.3704C12.0128 11.6302 12.3402 9.94497 14.4978 9.94497C16.6258 9.94497 16.6522 11.9345 16.6522 13.4803V19.9664H20.795V12.653C20.795 9.0606 20.0216 6.2998 15.8228 6.2998C13.8068 6.2998 12.4555 7.4061 11.9029 8.45307H11.8469V6.62938H7.87217ZM1.12454 6.62938H5.27177V19.9653H1.12454V6.62938Z" fill="white"/>
</svg>
