<svg width="20" height="16" viewBox="0 0 20 16" fill="none" xmlns="http://www.w3.org/2000/svg">
<path fill-rule="evenodd" clip-rule="evenodd" d="M3.62464 5.12826C3.62479 4.41649 3.80892 3.71684 4.15918 3.09721C4.50944 2.47758 5.01393 1.95901 5.62369 1.59183C6.23344 1.22465 6.92776 1.02133 7.63926 1.00159C8.35076 0.981851 9.05528 1.14637 9.68446 1.47918C10.3136 1.812 10.8461 2.3018 11.2302 2.90106C11.6142 3.50032 11.8369 4.18868 11.8765 4.89935C11.9161 5.61003 11.7713 6.31887 11.4562 6.95709C11.1411 7.59532 10.6664 8.14125 10.0781 8.54192C11.345 9.00658 12.4438 9.83975 13.2332 10.9342C14.0226 12.0286 14.4664 13.3343 14.5075 14.683C14.5097 14.757 14.4974 14.8306 14.4711 14.8998C14.4449 14.969 14.4052 15.0323 14.3545 15.0861C14.2521 15.1949 14.1107 15.2585 13.9613 15.263C13.812 15.2675 13.667 15.2125 13.5582 15.11C13.4495 15.0076 13.3859 14.8662 13.3814 14.7168C13.3367 13.254 12.7241 11.866 11.6736 10.847C10.623 9.82807 9.21693 9.25821 7.75338 9.25821C6.28983 9.25821 4.88379 9.82807 3.83322 10.847C2.78264 11.866 2.1701 13.254 2.12539 14.7168C2.11787 14.8639 2.05308 15.0021 1.94488 15.1019C1.83668 15.2017 1.69369 15.2552 1.54654 15.2509C1.39939 15.2466 1.25978 15.1848 1.15763 15.0788C1.05547 14.9728 0.998896 14.831 1.00002 14.6838C1.04097 13.3349 1.48471 12.0291 2.2741 10.9345C3.0635 9.83991 4.16243 9.00663 5.42944 8.54192C4.87291 8.16336 4.41748 7.65436 4.10289 7.05934C3.7883 6.46431 3.62411 5.80133 3.62464 5.12826ZM7.75376 2.12526C6.95731 2.12526 6.19349 2.44165 5.63032 3.00482C5.06715 3.56799 4.75076 4.33182 4.75076 5.12826C4.75076 5.92471 5.06715 6.68853 5.63032 7.2517C6.19349 7.81487 6.95731 8.13126 7.75376 8.13126C8.5502 8.13126 9.31403 7.81487 9.8772 7.2517C10.4404 6.68853 10.7568 5.92471 10.7568 5.12826C10.7568 4.33182 10.4404 3.56799 9.8772 3.00482C9.31403 2.44165 8.5502 2.12526 7.75376 2.12526Z" fill="#FFC814" stroke="#FA9556"/>
<path d="M13.9774 5.12806C13.8663 5.12806 13.7582 5.13556 13.6516 5.15058C13.5772 5.16391 13.5008 5.16211 13.4271 5.14529C13.3534 5.12846 13.2838 5.09697 13.2225 5.05267C13.1613 5.00838 13.1095 4.95219 13.0704 4.88747C13.0313 4.82275 13.0057 4.75082 12.995 4.67596C12.9843 4.60111 12.9888 4.52487 13.0082 4.45179C13.0276 4.37871 13.0615 4.31028 13.108 4.2506C13.1544 4.19092 13.2124 4.1412 13.2784 4.10441C13.3445 4.06762 13.4173 4.04451 13.4925 4.03647C14.2391 3.92851 15.0005 4.0719 15.6568 4.44407C16.313 4.81623 16.8269 5.39605 17.1175 6.09226C17.4082 6.78848 17.459 7.56157 17.2622 8.28987C17.0653 9.01817 16.6318 9.66033 16.03 10.1153C16.9147 10.5114 17.6658 11.1551 18.1928 11.9686C18.7198 12.7821 19.0001 13.7308 19 14.7001C19 14.8494 18.9406 14.9927 18.835 15.0983C18.7295 15.2039 18.5862 15.2632 18.4369 15.2632C18.2876 15.2632 18.1444 15.2039 18.0388 15.0983C17.9332 14.9927 17.8738 14.8494 17.8738 14.7001C17.8738 13.8624 17.6038 13.047 17.1041 12.3747C16.6043 11.7023 15.9012 11.2089 15.0991 10.9674L14.6982 10.8473V9.58901L15.006 9.4321C15.4622 9.20098 15.8273 8.82283 16.0422 8.35871C16.2572 7.89459 16.3094 7.37158 16.1905 6.87412C16.0717 6.37666 15.7886 5.93377 15.3871 5.61696C14.9855 5.30016 14.4889 5.12792 13.9774 5.12806Z" fill="#FFC814" stroke="#FA9556"/>
</svg>
