<svg width="20" height="17" viewBox="0 0 20 17" fill="none" xmlns="http://www.w3.org/2000/svg">
<path d="M20 1.93031C19.2645 2.24758 18.4641 2.47592 17.6397 2.56485C18.4956 2.05634 19.1366 1.25299 19.4424 0.305506C18.6392 0.783307 17.7593 1.11835 16.8417 1.29577C16.4582 0.885788 15.9944 0.559177 15.4792 0.336289C14.9639 0.113402 14.4083 -0.000985961 13.8469 0.000254116C11.5755 0.000254116 9.74883 1.84138 9.74883 4.10072C9.74883 4.41799 9.78729 4.73526 9.84978 5.04051C6.44874 4.86265 3.41546 3.23785 1.39887 0.750164C1.03143 1.37777 0.838874 2.09237 0.841245 2.81963C0.841245 4.24253 1.56472 5.49719 2.66795 6.23508C2.0178 6.20948 1.38287 6.03078 0.814806 5.71351V5.76398C0.814806 7.75653 2.22329 9.40778 4.10047 9.78754C3.74801 9.87909 3.38543 9.92593 3.02127 9.92695C2.75448 9.92695 2.5021 9.90051 2.24733 9.86446C2.76649 11.4893 4.27833 12.6694 6.0786 12.7079C4.67011 13.8111 2.9059 14.4601 0.990266 14.4601C0.646557 14.4601 0.329287 14.448 0 14.4096C1.81709 15.5753 3.97308 16.2483 6.29492 16.2483C13.8325 16.2483 17.957 10.0039 17.957 4.58384C17.957 4.40598 17.957 4.22811 17.945 4.05025C18.7429 3.46618 19.4424 2.74271 20 1.93031Z" fill="white"/>
</svg>
