<svg width="10" height="15" viewBox="0 0 10 15" fill="none" xmlns="http://www.w3.org/2000/svg">
<path d="M10 4.99102C10 4.3356 9.87067 3.68659 9.6194 3.08106C9.36812 2.47553 8.99983 1.92533 8.53553 1.46188C8.07124 0.998425 7.52005 0.630794 6.91342 0.379975C6.30679 0.129156 5.65661 6.10352e-05 5 6.10352e-05C4.34339 6.10352e-05 3.69321 0.129156 3.08658 0.379975C2.47995 0.630794 1.92876 0.998425 1.46447 1.46188C1.00017 1.92533 0.631876 2.47553 0.380602 3.08106C0.129329 3.68659 -9.78424e-09 4.3356 0 4.99102C0 5.97994 0.292857 6.8997 0.789286 7.67544H0.783572C2.46929 10.31 5 14.2599 5 14.2599L9.21643 7.67544H9.21143C9.72601 6.8743 9.99968 5.94268 10 4.99102ZM5 7.13C4.43168 7.13 3.88663 6.90465 3.48477 6.50351C3.08291 6.10237 2.85714 5.55831 2.85714 4.99102C2.85714 4.42373 3.08291 3.87967 3.48477 3.47853C3.88663 3.07739 4.43168 2.85204 5 2.85204C5.56832 2.85204 6.11337 3.07739 6.51523 3.47853C6.91709 3.87967 7.14286 4.42373 7.14286 4.99102C7.14286 5.55831 6.91709 6.10237 6.51523 6.50351C6.11337 6.90465 5.56832 7.13 5 7.13Z" fill="#FA9556"/>
</svg>
