<svg width="14" height="20" viewBox="0 0 14 20" fill="none" xmlns="http://www.w3.org/2000/svg">
<path d="M7 0.000244141C3.13 0.000244141 0 3.13024 0 7.00024C0 12.2502 7 20.0002 7 20.0002C7 20.0002 14 12.2502 14 7.00024C14 3.13024 10.87 0.000244141 7 0.000244141ZM7 9.50024C6.33696 9.50024 5.70107 9.23685 5.23223 8.76801C4.76339 8.29917 4.5 7.66329 4.5 7.00024C4.5 6.3372 4.76339 5.70132 5.23223 5.23248C5.70107 4.76364 6.33696 4.50024 7 4.50024C7.66304 4.50024 8.29893 4.76364 8.76777 5.23248C9.23661 5.70132 9.5 6.3372 9.5 7.00024C9.5 7.66329 9.23661 8.29917 8.76777 8.76801C8.29893 9.23685 7.66304 9.50024 7 9.50024Z" fill="white"/>
</svg>
