<svg width="18" height="18" viewBox="0 0 18 18" fill="none" xmlns="http://www.w3.org/2000/svg">
<path d="M17.4873 13.9549L13.4223 10.2589C13.2301 10.0843 12.9776 9.99114 12.7181 9.99917C12.4585 10.0072 12.2123 10.1158 12.0313 10.3019L9.63828 12.7629C9.06228 12.6529 7.90428 12.2919 6.71228 11.1029C5.52028 9.90994 5.15928 8.74894 5.05228 8.17694L7.51128 5.78294C7.69769 5.60206 7.80642 5.35576 7.81444 5.09614C7.82247 4.83653 7.72917 4.58398 7.55428 4.39194L3.85928 0.327936C3.68432 0.135293 3.44116 0.0184405 3.18143 0.00219593C2.92171 -0.0140486 2.66588 0.0715945 2.46828 0.240936L0.298282 2.10194C0.125393 2.27545 0.0222015 2.50639 0.00828196 2.75094C-0.00671804 3.00094 -0.292718 8.92294 4.29928 13.5169C8.30528 17.5219 13.3233 17.8149 14.7053 17.8149C14.9073 17.8149 15.0313 17.8089 15.0643 17.8069C15.3088 17.7932 15.5396 17.6896 15.7123 17.5159L17.5723 15.3449C17.7423 15.148 17.8286 14.8923 17.8127 14.6326C17.7968 14.3729 17.68 14.1297 17.4873 13.9549Z" fill="white"/>
</svg>
