<svg width="13" height="12" viewBox="0 0 13 12" fill="none" xmlns="http://www.w3.org/2000/svg">
<path d="M12.0055 4.16434L8.28631 3.62479L6.62371 0.260276C6.5783 0.168158 6.50359 0.0935859 6.41131 0.0482578C6.17986 -0.0657934 5.89861 0.0292493 5.78289 0.260276L4.12029 3.62479L0.401051 4.16434C0.298512 4.17896 0.204762 4.22721 0.132985 4.30032C0.0462101 4.38935 -0.0016068 4.50912 4.12294e-05 4.63332C0.00168926 4.75752 0.0526674 4.87599 0.141774 4.96269L2.83269 7.58149L2.19695 11.2794C2.18204 11.3654 2.19158 11.4539 2.22448 11.5348C2.25738 11.6156 2.31232 11.6857 2.38309 11.737C2.45385 11.7883 2.53759 11.8188 2.62483 11.825C2.71207 11.8312 2.7993 11.8129 2.87664 11.7721L6.2033 10.0263L9.52996 11.7721C9.62078 11.8204 9.72625 11.8365 9.82732 11.8189C10.0822 11.7751 10.2536 11.5338 10.2096 11.2794L9.5739 7.58149L12.2648 4.96269C12.3381 4.89105 12.3864 4.79747 12.4011 4.69511C12.4406 4.43923 12.2619 4.20235 12.0055 4.16434Z" fill="#FA9556"/>
</svg>
