<svg width="20" height="18" viewBox="0 0 20 18" fill="none" xmlns="http://www.w3.org/2000/svg">
<path d="M19.9822 4.01071C19.894 5.96086 18.5327 8.63356 15.9025 12.0188C13.1804 15.561 10.8827 17.3292 8.99444 17.3292C7.81935 17.3292 6.84615 16.2516 6.03171 14.0965L4.43346 8.16415C3.83529 6.01211 3.19649 4.93453 2.51019 4.93453C2.36018 4.93453 1.83577 5.24705 0.940697 5.87522L0 4.66076C0.979006 3.80003 1.9514 2.93181 2.9171 2.05618C4.2322 0.913595 5.22227 0.317925 5.87982 0.256045C7.43557 0.106034 8.39252 1.17424 8.75442 3.45316C9.14195 5.91398 9.40884 7.44409 9.56198 8.04352C10.0114 10.0843 10.5052 11.1069 11.0427 11.1069C11.4596 11.1069 12.0878 10.4424 12.931 9.11735C13.7679 7.79225 14.2136 6.78654 14.2717 6.09274C14.3923 4.95328 13.9423 4.37699 12.9272 4.37699C12.4491 4.37699 11.954 4.47887 11.4452 4.70264C12.4353 1.47989 14.3073 -0.095857 17.0807 0.00477566C19.1415 0.0541544 20.1053 1.39176 19.9909 4.00258L19.9822 4.01071Z" fill="white"/>
</svg>
